<mxfile host="app.diagrams.net" modified="2024-02-28T14:15:23.556Z" agent="Mozilla/5.0 (Windows NT 10.0; Win64; x64) AppleWebKit/537.36 (KHTML, like Gecko) Chrome/122.0.0.0 Safari/537.36 Edg/122.0.0.0" etag="xdp6Jeo0dPSfuLyNHNAF" version="23.1.6" type="device">
  <diagram name="Сторінка-1" id="_XXKR_IUMBMaYtfP8-WY">
    <mxGraphModel dx="2053" dy="1911" grid="1" gridSize="10" guides="1" tooltips="1" connect="1" arrows="1" fold="1" page="1" pageScale="1" pageWidth="827" pageHeight="1169" math="0" shadow="0">
      <root>
        <mxCell id="0" />
        <mxCell id="1" parent="0" />
        <mxCell id="UCy_45d5EXnEg_kL4lnL-35" value="" style="html=1;dropTarget=0;whiteSpace=wrap;" parent="1" vertex="1">
          <mxGeometry x="-120" y="20" width="680" height="460" as="geometry" />
        </mxCell>
        <mxCell id="UCy_45d5EXnEg_kL4lnL-36" value="" style="shape=module;jettyWidth=8;jettyHeight=4;" parent="UCy_45d5EXnEg_kL4lnL-35" vertex="1">
          <mxGeometry x="1" width="20" height="20" relative="1" as="geometry">
            <mxPoint x="-27" y="7" as="offset" />
          </mxGeometry>
        </mxCell>
        <mxCell id="greT-Am3jdn_44DYWwTs-17" value="" style="ellipse;whiteSpace=wrap;html=1;align=center;aspect=fixed;fillColor=none;strokeColor=none;resizable=0;perimeter=centerPerimeter;rotatable=0;allowArrows=0;points=[];outlineConnect=1;" parent="1" vertex="1">
          <mxGeometry x="405" y="220" width="10" height="10" as="geometry" />
        </mxCell>
        <mxCell id="greT-Am3jdn_44DYWwTs-21" value="" style="ellipse;whiteSpace=wrap;html=1;align=center;aspect=fixed;fillColor=none;strokeColor=none;resizable=0;perimeter=centerPerimeter;rotatable=0;allowArrows=0;points=[];outlineConnect=1;" parent="1" vertex="1">
          <mxGeometry x="400" y="220" width="10" height="10" as="geometry" />
        </mxCell>
        <mxCell id="UCy_45d5EXnEg_kL4lnL-1" value="traps" style="html=1;dropTarget=0;whiteSpace=wrap;" parent="1" vertex="1">
          <mxGeometry x="-130" y="80" width="180" height="90" as="geometry" />
        </mxCell>
        <mxCell id="UCy_45d5EXnEg_kL4lnL-2" value="" style="shape=module;jettyWidth=8;jettyHeight=4;" parent="UCy_45d5EXnEg_kL4lnL-1" vertex="1">
          <mxGeometry x="1" width="20" height="20" relative="1" as="geometry">
            <mxPoint x="-27" y="7" as="offset" />
          </mxGeometry>
        </mxCell>
        <mxCell id="UCy_45d5EXnEg_kL4lnL-3" value="TextureManager" style="html=1;dropTarget=0;whiteSpace=wrap;" parent="1" vertex="1">
          <mxGeometry x="-140" y="310" width="180" height="90" as="geometry" />
        </mxCell>
        <mxCell id="UCy_45d5EXnEg_kL4lnL-4" value="" style="shape=module;jettyWidth=8;jettyHeight=4;" parent="UCy_45d5EXnEg_kL4lnL-3" vertex="1">
          <mxGeometry x="1" width="20" height="20" relative="1" as="geometry">
            <mxPoint x="-27" y="7" as="offset" />
          </mxGeometry>
        </mxCell>
        <mxCell id="UCy_45d5EXnEg_kL4lnL-15" value="" style="group" parent="1" vertex="1" connectable="0">
          <mxGeometry x="-100" y="270" width="180" height="300" as="geometry" />
        </mxCell>
        <mxCell id="UCy_45d5EXnEg_kL4lnL-5" value="All_Platforms" style="html=1;dropTarget=0;whiteSpace=wrap;" parent="UCy_45d5EXnEg_kL4lnL-15" vertex="1">
          <mxGeometry width="180" height="300" as="geometry" />
        </mxCell>
        <mxCell id="UCy_45d5EXnEg_kL4lnL-6" value="" style="shape=module;jettyWidth=8;jettyHeight=4;" parent="UCy_45d5EXnEg_kL4lnL-5" vertex="1">
          <mxGeometry x="1" width="20" height="20" relative="1" as="geometry">
            <mxPoint x="-27" y="7" as="offset" />
          </mxGeometry>
        </mxCell>
        <mxCell id="UCy_45d5EXnEg_kL4lnL-7" value="Platform" style="html=1;dropTarget=0;whiteSpace=wrap;" parent="UCy_45d5EXnEg_kL4lnL-15" vertex="1">
          <mxGeometry width="120" height="50" as="geometry" />
        </mxCell>
        <mxCell id="UCy_45d5EXnEg_kL4lnL-8" value="" style="shape=module;jettyWidth=8;jettyHeight=4;" parent="UCy_45d5EXnEg_kL4lnL-7" vertex="1">
          <mxGeometry x="1" width="20" height="20" relative="1" as="geometry">
            <mxPoint x="-27" y="7" as="offset" />
          </mxGeometry>
        </mxCell>
        <mxCell id="UCy_45d5EXnEg_kL4lnL-9" value="ExtremePlatform" style="html=1;dropTarget=0;whiteSpace=wrap;" parent="UCy_45d5EXnEg_kL4lnL-15" vertex="1">
          <mxGeometry y="50" width="120" height="50" as="geometry" />
        </mxCell>
        <mxCell id="UCy_45d5EXnEg_kL4lnL-10" value="" style="shape=module;jettyWidth=8;jettyHeight=4;" parent="UCy_45d5EXnEg_kL4lnL-9" vertex="1">
          <mxGeometry x="1" width="20" height="20" relative="1" as="geometry">
            <mxPoint x="-27" y="7" as="offset" />
          </mxGeometry>
        </mxCell>
        <mxCell id="UCy_45d5EXnEg_kL4lnL-11" value="MovingPlatform" style="html=1;dropTarget=0;whiteSpace=wrap;" parent="UCy_45d5EXnEg_kL4lnL-15" vertex="1">
          <mxGeometry y="250" width="120" height="50" as="geometry" />
        </mxCell>
        <mxCell id="UCy_45d5EXnEg_kL4lnL-12" value="" style="shape=module;jettyWidth=8;jettyHeight=4;" parent="UCy_45d5EXnEg_kL4lnL-11" vertex="1">
          <mxGeometry x="1" width="20" height="20" relative="1" as="geometry">
            <mxPoint x="-27" y="7" as="offset" />
          </mxGeometry>
        </mxCell>
        <mxCell id="UCy_45d5EXnEg_kL4lnL-13" value="WhitePlatform" style="html=1;dropTarget=0;whiteSpace=wrap;" parent="UCy_45d5EXnEg_kL4lnL-15" vertex="1">
          <mxGeometry y="200" width="120" height="50" as="geometry" />
        </mxCell>
        <mxCell id="UCy_45d5EXnEg_kL4lnL-14" value="" style="shape=module;jettyWidth=8;jettyHeight=4;" parent="UCy_45d5EXnEg_kL4lnL-13" vertex="1">
          <mxGeometry x="1" width="20" height="20" relative="1" as="geometry">
            <mxPoint x="-27" y="7" as="offset" />
          </mxGeometry>
        </mxCell>
        <mxCell id="UCy_45d5EXnEg_kL4lnL-16" value="" style="group" parent="1" vertex="1" connectable="0">
          <mxGeometry x="130" y="290" width="180" height="300" as="geometry" />
        </mxCell>
        <mxCell id="UCy_45d5EXnEg_kL4lnL-17" value="All_levels" style="html=1;dropTarget=0;whiteSpace=wrap;" parent="UCy_45d5EXnEg_kL4lnL-16" vertex="1">
          <mxGeometry width="180" height="300" as="geometry" />
        </mxCell>
        <mxCell id="UCy_45d5EXnEg_kL4lnL-18" value="" style="shape=module;jettyWidth=8;jettyHeight=4;" parent="UCy_45d5EXnEg_kL4lnL-17" vertex="1">
          <mxGeometry x="1" width="20" height="20" relative="1" as="geometry">
            <mxPoint x="-27" y="7" as="offset" />
          </mxGeometry>
        </mxCell>
        <mxCell id="UCy_45d5EXnEg_kL4lnL-19" value="EasyLevel" style="html=1;dropTarget=0;whiteSpace=wrap;" parent="UCy_45d5EXnEg_kL4lnL-16" vertex="1">
          <mxGeometry width="120" height="50" as="geometry" />
        </mxCell>
        <mxCell id="UCy_45d5EXnEg_kL4lnL-20" value="" style="shape=module;jettyWidth=8;jettyHeight=4;" parent="UCy_45d5EXnEg_kL4lnL-19" vertex="1">
          <mxGeometry x="1" width="20" height="20" relative="1" as="geometry">
            <mxPoint x="-27" y="7" as="offset" />
          </mxGeometry>
        </mxCell>
        <mxCell id="UCy_45d5EXnEg_kL4lnL-23" value="HardLevel" style="html=1;dropTarget=0;whiteSpace=wrap;" parent="UCy_45d5EXnEg_kL4lnL-16" vertex="1">
          <mxGeometry y="250" width="120" height="50" as="geometry" />
        </mxCell>
        <mxCell id="UCy_45d5EXnEg_kL4lnL-24" value="" style="shape=module;jettyWidth=8;jettyHeight=4;" parent="UCy_45d5EXnEg_kL4lnL-23" vertex="1">
          <mxGeometry x="1" width="20" height="20" relative="1" as="geometry">
            <mxPoint x="-27" y="7" as="offset" />
          </mxGeometry>
        </mxCell>
        <mxCell id="UCy_45d5EXnEg_kL4lnL-25" value="MediumLevel" style="html=1;dropTarget=0;whiteSpace=wrap;" parent="UCy_45d5EXnEg_kL4lnL-16" vertex="1">
          <mxGeometry y="200" width="120" height="50" as="geometry" />
        </mxCell>
        <mxCell id="UCy_45d5EXnEg_kL4lnL-26" value="" style="shape=module;jettyWidth=8;jettyHeight=4;" parent="UCy_45d5EXnEg_kL4lnL-25" vertex="1">
          <mxGeometry x="1" width="20" height="20" relative="1" as="geometry">
            <mxPoint x="-27" y="7" as="offset" />
          </mxGeometry>
        </mxCell>
        <mxCell id="UCy_45d5EXnEg_kL4lnL-27" value="Score" style="html=1;dropTarget=0;whiteSpace=wrap;" parent="1" vertex="1">
          <mxGeometry x="345" y="450" width="180" height="90" as="geometry" />
        </mxCell>
        <mxCell id="UCy_45d5EXnEg_kL4lnL-28" value="" style="shape=module;jettyWidth=8;jettyHeight=4;" parent="UCy_45d5EXnEg_kL4lnL-27" vertex="1">
          <mxGeometry x="1" width="20" height="20" relative="1" as="geometry">
            <mxPoint x="-27" y="7" as="offset" />
          </mxGeometry>
        </mxCell>
        <mxCell id="UCy_45d5EXnEg_kL4lnL-29" value="Game" style="html=1;dropTarget=0;whiteSpace=wrap;" parent="1" vertex="1">
          <mxGeometry x="500" y="440" width="180" height="90" as="geometry" />
        </mxCell>
        <mxCell id="UCy_45d5EXnEg_kL4lnL-30" value="" style="shape=module;jettyWidth=8;jettyHeight=4;" parent="UCy_45d5EXnEg_kL4lnL-29" vertex="1">
          <mxGeometry x="1" width="20" height="20" relative="1" as="geometry">
            <mxPoint x="-27" y="7" as="offset" />
          </mxGeometry>
        </mxCell>
        <mxCell id="UCy_45d5EXnEg_kL4lnL-31" value="Settings" style="html=1;dropTarget=0;whiteSpace=wrap;" parent="1" vertex="1">
          <mxGeometry x="490" y="290" width="180" height="90" as="geometry" />
        </mxCell>
        <mxCell id="UCy_45d5EXnEg_kL4lnL-32" value="" style="shape=module;jettyWidth=8;jettyHeight=4;" parent="UCy_45d5EXnEg_kL4lnL-31" vertex="1">
          <mxGeometry x="1" width="20" height="20" relative="1" as="geometry">
            <mxPoint x="-27" y="7" as="offset" />
          </mxGeometry>
        </mxCell>
        <mxCell id="UCy_45d5EXnEg_kL4lnL-33" value="Tutorial" style="html=1;dropTarget=0;whiteSpace=wrap;" parent="1" vertex="1">
          <mxGeometry x="400" y="10" width="180" height="90" as="geometry" />
        </mxCell>
        <mxCell id="UCy_45d5EXnEg_kL4lnL-34" value="" style="shape=module;jettyWidth=8;jettyHeight=4;" parent="UCy_45d5EXnEg_kL4lnL-33" vertex="1">
          <mxGeometry x="1" width="20" height="20" relative="1" as="geometry">
            <mxPoint x="-27" y="7" as="offset" />
          </mxGeometry>
        </mxCell>
        <mxCell id="UCy_45d5EXnEg_kL4lnL-41" value="" style="rounded=0;orthogonalLoop=1;jettySize=auto;html=1;endArrow=oval;endFill=0;sketch=0;sourcePerimeterSpacing=0;targetPerimeterSpacing=0;endSize=10;" parent="1" source="UCy_45d5EXnEg_kL4lnL-35" edge="1">
          <mxGeometry relative="1" as="geometry">
            <mxPoint x="323" y="220" as="sourcePoint" />
            <mxPoint x="510" y="200" as="targetPoint" />
          </mxGeometry>
        </mxCell>
        <mxCell id="UCy_45d5EXnEg_kL4lnL-42" value="" style="rounded=0;orthogonalLoop=1;jettySize=auto;html=1;endArrow=halfCircle;endFill=0;endSize=6;strokeWidth=1;sketch=0;exitX=0.359;exitY=-0.022;exitDx=0;exitDy=0;exitPerimeter=0;" parent="1" source="UCy_45d5EXnEg_kL4lnL-31" edge="1">
          <mxGeometry relative="1" as="geometry">
            <mxPoint x="562.173913043478" y="208" as="sourcePoint" />
            <mxPoint x="510" y="200" as="targetPoint" />
          </mxGeometry>
        </mxCell>
        <mxCell id="UCy_45d5EXnEg_kL4lnL-45" value="" style="rounded=0;orthogonalLoop=1;jettySize=auto;html=1;endArrow=halfCircle;endFill=0;endSize=6;strokeWidth=1;sketch=0;" parent="1" edge="1">
          <mxGeometry relative="1" as="geometry">
            <mxPoint x="540" y="158.8461538461538" as="sourcePoint" />
            <mxPoint x="510" y="160" as="targetPoint" />
          </mxGeometry>
        </mxCell>
        <mxCell id="UCy_45d5EXnEg_kL4lnL-47" value="Use" style="endArrow=open;endSize=12;dashed=1;html=1;rounded=0;" parent="1" target="UCy_45d5EXnEg_kL4lnL-33" edge="1">
          <mxGeometry width="160" relative="1" as="geometry">
            <mxPoint x="618.181818181818" y="140" as="sourcePoint" />
            <mxPoint x="700" y="300" as="targetPoint" />
          </mxGeometry>
        </mxCell>
        <mxCell id="QOJqXSHRZHHX3jopu4hm-5" value="" style="rounded=0;orthogonalLoop=1;jettySize=auto;html=1;endArrow=oval;endFill=0;sketch=0;sourcePerimeterSpacing=0;targetPerimeterSpacing=0;endSize=10;exitX=0.5;exitY=0;exitDx=0;exitDy=0;" edge="1" parent="1" source="UCy_45d5EXnEg_kL4lnL-35">
          <mxGeometry relative="1" as="geometry">
            <mxPoint x="320" y="185" as="sourcePoint" />
            <mxPoint x="305" y="140" as="targetPoint" />
          </mxGeometry>
        </mxCell>
        <mxCell id="QOJqXSHRZHHX3jopu4hm-6" value="" style="ellipse;whiteSpace=wrap;html=1;align=center;aspect=fixed;fillColor=none;strokeColor=none;resizable=0;perimeter=centerPerimeter;rotatable=0;allowArrows=0;points=[];outlineConnect=1;" vertex="1" parent="1">
          <mxGeometry x="335" y="180" width="10" height="10" as="geometry" />
        </mxCell>
        <mxCell id="QOJqXSHRZHHX3jopu4hm-7" value="Menu" style="text;html=1;align=center;verticalAlign=middle;resizable=0;points=[];autosize=1;strokeColor=none;fillColor=none;" vertex="1" parent="1">
          <mxGeometry x="280" y="170" width="50" height="30" as="geometry" />
        </mxCell>
        <mxCell id="QOJqXSHRZHHX3jopu4hm-8" value="MainWindow" style="html=1;dropTarget=0;whiteSpace=wrap;" vertex="1" parent="1">
          <mxGeometry x="290" y="210" width="140" height="60" as="geometry" />
        </mxCell>
        <mxCell id="QOJqXSHRZHHX3jopu4hm-9" value="" style="shape=module;jettyWidth=8;jettyHeight=4;" vertex="1" parent="QOJqXSHRZHHX3jopu4hm-8">
          <mxGeometry x="1" width="20" height="20" relative="1" as="geometry">
            <mxPoint x="-27" y="7" as="offset" />
          </mxGeometry>
        </mxCell>
        <mxCell id="QOJqXSHRZHHX3jopu4hm-13" value="Tutorial" style="html=1;dropTarget=0;whiteSpace=wrap;" vertex="1" parent="1">
          <mxGeometry x="647" y="-50" width="180" height="90" as="geometry" />
        </mxCell>
        <mxCell id="QOJqXSHRZHHX3jopu4hm-14" value="" style="shape=module;jettyWidth=8;jettyHeight=4;" vertex="1" parent="QOJqXSHRZHHX3jopu4hm-13">
          <mxGeometry x="1" width="20" height="20" relative="1" as="geometry">
            <mxPoint x="-27" y="7" as="offset" />
          </mxGeometry>
        </mxCell>
        <mxCell id="QOJqXSHRZHHX3jopu4hm-15" value="CreateGame" style="html=1;dropTarget=0;whiteSpace=wrap;" vertex="1" parent="1">
          <mxGeometry x="60" y="215" width="100" height="50" as="geometry" />
        </mxCell>
        <mxCell id="QOJqXSHRZHHX3jopu4hm-16" value="" style="shape=module;jettyWidth=8;jettyHeight=4;" vertex="1" parent="QOJqXSHRZHHX3jopu4hm-15">
          <mxGeometry x="1" width="20" height="20" relative="1" as="geometry">
            <mxPoint x="-27" y="7" as="offset" />
          </mxGeometry>
        </mxCell>
        <mxCell id="QOJqXSHRZHHX3jopu4hm-17" value="" style="rounded=0;orthogonalLoop=1;jettySize=auto;html=1;endArrow=halfCircle;endFill=0;endSize=6;strokeWidth=1;sketch=0;" edge="1" target="QOJqXSHRZHHX3jopu4hm-19" parent="1" source="QOJqXSHRZHHX3jopu4hm-15">
          <mxGeometry relative="1" as="geometry">
            <mxPoint x="250" y="265" as="sourcePoint" />
          </mxGeometry>
        </mxCell>
        <mxCell id="QOJqXSHRZHHX3jopu4hm-18" value="" style="rounded=0;orthogonalLoop=1;jettySize=auto;html=1;endArrow=oval;endFill=0;sketch=0;sourcePerimeterSpacing=0;targetPerimeterSpacing=0;endSize=10;" edge="1" target="QOJqXSHRZHHX3jopu4hm-19" parent="1" source="QOJqXSHRZHHX3jopu4hm-8">
          <mxGeometry relative="1" as="geometry">
            <mxPoint x="210" y="265" as="sourcePoint" />
          </mxGeometry>
        </mxCell>
        <mxCell id="QOJqXSHRZHHX3jopu4hm-19" value="" style="ellipse;whiteSpace=wrap;html=1;align=center;aspect=fixed;fillColor=none;strokeColor=none;resizable=0;perimeter=centerPerimeter;rotatable=0;allowArrows=0;points=[];outlineConnect=1;" vertex="1" parent="1">
          <mxGeometry x="200" y="240" width="10" height="10" as="geometry" />
        </mxCell>
        <mxCell id="QOJqXSHRZHHX3jopu4hm-20" value="RunGame" style="text;html=1;align=center;verticalAlign=middle;resizable=0;points=[];autosize=1;strokeColor=none;fillColor=none;" vertex="1" parent="1">
          <mxGeometry x="175" y="210" width="80" height="30" as="geometry" />
        </mxCell>
        <mxCell id="QOJqXSHRZHHX3jopu4hm-21" value="" style="html=1;dropTarget=0;whiteSpace=wrap;" vertex="1" parent="1">
          <mxGeometry x="-160" y="850" width="840" height="610" as="geometry" />
        </mxCell>
        <mxCell id="QOJqXSHRZHHX3jopu4hm-22" value="" style="shape=module;jettyWidth=8;jettyHeight=4;" vertex="1" parent="QOJqXSHRZHHX3jopu4hm-21">
          <mxGeometry x="1" width="20" height="20" relative="1" as="geometry">
            <mxPoint x="-27" y="7" as="offset" />
          </mxGeometry>
        </mxCell>
        <mxCell id="QOJqXSHRZHHX3jopu4hm-23" value="Program" style="text;html=1;align=center;verticalAlign=middle;resizable=0;points=[];autosize=1;strokeColor=none;fillColor=none;" vertex="1" parent="1">
          <mxGeometry x="-130" y="860" width="70" height="30" as="geometry" />
        </mxCell>
        <mxCell id="QOJqXSHRZHHX3jopu4hm-24" value="MainWindow" style="html=1;dropTarget=0;whiteSpace=wrap;" vertex="1" parent="1">
          <mxGeometry x="210" y="980" width="180" height="90" as="geometry" />
        </mxCell>
        <mxCell id="QOJqXSHRZHHX3jopu4hm-25" value="" style="shape=module;jettyWidth=8;jettyHeight=4;" vertex="1" parent="QOJqXSHRZHHX3jopu4hm-24">
          <mxGeometry x="1" width="20" height="20" relative="1" as="geometry">
            <mxPoint x="-27" y="7" as="offset" />
          </mxGeometry>
        </mxCell>
        <mxCell id="QOJqXSHRZHHX3jopu4hm-26" value="" style="rounded=0;orthogonalLoop=1;jettySize=auto;html=1;endArrow=oval;endFill=0;sketch=0;sourcePerimeterSpacing=0;targetPerimeterSpacing=0;endSize=10;exitX=0.75;exitY=0;exitDx=0;exitDy=0;" edge="1" parent="1" source="QOJqXSHRZHHX3jopu4hm-24">
          <mxGeometry relative="1" as="geometry">
            <mxPoint x="360" y="770" as="sourcePoint" />
            <mxPoint x="340" y="810" as="targetPoint" />
          </mxGeometry>
        </mxCell>
        <mxCell id="QOJqXSHRZHHX3jopu4hm-27" value="Controller" style="text;html=1;align=center;verticalAlign=middle;resizable=0;points=[];autosize=1;strokeColor=none;fillColor=none;" vertex="1" parent="1">
          <mxGeometry x="300" y="768" width="80" height="30" as="geometry" />
        </mxCell>
        <mxCell id="QOJqXSHRZHHX3jopu4hm-28" value="" style="rounded=0;orthogonalLoop=1;jettySize=auto;html=1;endArrow=oval;endFill=0;sketch=0;sourcePerimeterSpacing=0;targetPerimeterSpacing=0;endSize=10;" edge="1" parent="1" source="QOJqXSHRZHHX3jopu4hm-24">
          <mxGeometry relative="1" as="geometry">
            <mxPoint x="375" y="940" as="sourcePoint" />
            <mxPoint x="260" y="810" as="targetPoint" />
          </mxGeometry>
        </mxCell>
        <mxCell id="QOJqXSHRZHHX3jopu4hm-29" value="Background" style="text;html=1;align=center;verticalAlign=middle;resizable=0;points=[];autosize=1;strokeColor=none;fillColor=none;" vertex="1" parent="1">
          <mxGeometry x="210" y="768" width="90" height="30" as="geometry" />
        </mxCell>
        <mxCell id="QOJqXSHRZHHX3jopu4hm-30" value="Settings" style="html=1;dropTarget=0;whiteSpace=wrap;" vertex="1" parent="1">
          <mxGeometry x="-110" y="900" width="180" height="90" as="geometry" />
        </mxCell>
        <mxCell id="QOJqXSHRZHHX3jopu4hm-31" value="" style="shape=module;jettyWidth=8;jettyHeight=4;" vertex="1" parent="QOJqXSHRZHHX3jopu4hm-30">
          <mxGeometry x="1" width="20" height="20" relative="1" as="geometry">
            <mxPoint x="-27" y="7" as="offset" />
          </mxGeometry>
        </mxCell>
        <mxCell id="QOJqXSHRZHHX3jopu4hm-35" value="" style="rounded=0;orthogonalLoop=1;jettySize=auto;html=1;endArrow=halfCircle;endFill=0;endSize=6;strokeWidth=1;sketch=0;" edge="1" target="QOJqXSHRZHHX3jopu4hm-37" parent="1" source="QOJqXSHRZHHX3jopu4hm-30">
          <mxGeometry relative="1" as="geometry">
            <mxPoint x="260" y="945" as="sourcePoint" />
          </mxGeometry>
        </mxCell>
        <mxCell id="QOJqXSHRZHHX3jopu4hm-36" value="" style="rounded=0;orthogonalLoop=1;jettySize=auto;html=1;endArrow=oval;endFill=0;sketch=0;sourcePerimeterSpacing=0;targetPerimeterSpacing=0;endSize=10;" edge="1" target="QOJqXSHRZHHX3jopu4hm-37" parent="1" source="QOJqXSHRZHHX3jopu4hm-24">
          <mxGeometry relative="1" as="geometry">
            <mxPoint x="220" y="945" as="sourcePoint" />
          </mxGeometry>
        </mxCell>
        <mxCell id="QOJqXSHRZHHX3jopu4hm-37" value="" style="ellipse;whiteSpace=wrap;html=1;align=center;aspect=fixed;fillColor=none;strokeColor=none;resizable=0;perimeter=centerPerimeter;rotatable=0;allowArrows=0;points=[];outlineConnect=1;" vertex="1" parent="1">
          <mxGeometry x="130" y="940" width="10" height="10" as="geometry" />
        </mxCell>
        <mxCell id="QOJqXSHRZHHX3jopu4hm-38" value="ChangedSettings" style="text;html=1;align=center;verticalAlign=middle;resizable=0;points=[];autosize=1;strokeColor=none;fillColor=none;" vertex="1" parent="1">
          <mxGeometry x="90" y="910" width="120" height="30" as="geometry" />
        </mxCell>
        <mxCell id="QOJqXSHRZHHX3jopu4hm-43" value="Tutorial" style="html=1;dropTarget=0;whiteSpace=wrap;" vertex="1" parent="1">
          <mxGeometry x="-130" y="1050" width="180" height="90" as="geometry" />
        </mxCell>
        <mxCell id="QOJqXSHRZHHX3jopu4hm-44" value="" style="shape=module;jettyWidth=8;jettyHeight=4;" vertex="1" parent="QOJqXSHRZHHX3jopu4hm-43">
          <mxGeometry x="1" width="20" height="20" relative="1" as="geometry">
            <mxPoint x="-27" y="7" as="offset" />
          </mxGeometry>
        </mxCell>
        <mxCell id="QOJqXSHRZHHX3jopu4hm-45" value="" style="rounded=0;orthogonalLoop=1;jettySize=auto;html=1;endArrow=halfCircle;endFill=0;endSize=6;strokeWidth=1;sketch=0;exitX=1;exitY=0.75;exitDx=0;exitDy=0;" edge="1" target="QOJqXSHRZHHX3jopu4hm-47" parent="1" source="QOJqXSHRZHHX3jopu4hm-44">
          <mxGeometry relative="1" as="geometry">
            <mxPoint x="260" y="945" as="sourcePoint" />
          </mxGeometry>
        </mxCell>
        <mxCell id="QOJqXSHRZHHX3jopu4hm-46" value="" style="rounded=0;orthogonalLoop=1;jettySize=auto;html=1;endArrow=oval;endFill=0;sketch=0;sourcePerimeterSpacing=0;targetPerimeterSpacing=0;endSize=10;" edge="1" target="QOJqXSHRZHHX3jopu4hm-47" parent="1" source="QOJqXSHRZHHX3jopu4hm-24">
          <mxGeometry relative="1" as="geometry">
            <mxPoint x="220" y="945" as="sourcePoint" />
          </mxGeometry>
        </mxCell>
        <mxCell id="QOJqXSHRZHHX3jopu4hm-47" value="" style="ellipse;whiteSpace=wrap;html=1;align=center;aspect=fixed;fillColor=none;strokeColor=none;resizable=0;perimeter=centerPerimeter;rotatable=0;allowArrows=0;points=[];outlineConnect=1;" vertex="1" parent="1">
          <mxGeometry x="80" y="1070" width="10" height="10" as="geometry" />
        </mxCell>
        <mxCell id="QOJqXSHRZHHX3jopu4hm-51" value="Tutorial" style="text;html=1;align=center;verticalAlign=middle;resizable=0;points=[];autosize=1;strokeColor=none;fillColor=none;" vertex="1" parent="1">
          <mxGeometry x="70" y="1030" width="60" height="30" as="geometry" />
        </mxCell>
        <mxCell id="QOJqXSHRZHHX3jopu4hm-54" value="" style="ellipse;whiteSpace=wrap;html=1;align=center;aspect=fixed;fillColor=none;strokeColor=none;resizable=0;perimeter=centerPerimeter;rotatable=0;allowArrows=0;points=[];outlineConnect=1;" vertex="1" parent="1">
          <mxGeometry x="300" y="1120" width="10" height="10" as="geometry" />
        </mxCell>
        <mxCell id="QOJqXSHRZHHX3jopu4hm-61" value="TextureManager" style="html=1;dropTarget=0;whiteSpace=wrap;" vertex="1" parent="1">
          <mxGeometry x="-30" y="1290" width="180" height="90" as="geometry" />
        </mxCell>
        <mxCell id="QOJqXSHRZHHX3jopu4hm-62" value="" style="shape=module;jettyWidth=8;jettyHeight=4;" vertex="1" parent="QOJqXSHRZHHX3jopu4hm-61">
          <mxGeometry x="1" width="20" height="20" relative="1" as="geometry">
            <mxPoint x="-27" y="7" as="offset" />
          </mxGeometry>
        </mxCell>
        <mxCell id="QOJqXSHRZHHX3jopu4hm-66" value="" style="rounded=0;whiteSpace=wrap;html=1;" vertex="1" parent="1">
          <mxGeometry x="280" y="970" width="20" height="20" as="geometry" />
        </mxCell>
        <mxCell id="QOJqXSHRZHHX3jopu4hm-67" value="" style="rounded=0;whiteSpace=wrap;html=1;" vertex="1" parent="1">
          <mxGeometry x="335" y="970" width="20" height="20" as="geometry" />
        </mxCell>
        <mxCell id="QOJqXSHRZHHX3jopu4hm-70" value="" style="rounded=0;orthogonalLoop=1;jettySize=auto;html=1;endArrow=halfCircle;endFill=0;endSize=6;strokeWidth=1;sketch=0;entryX=0.429;entryY=0.947;entryDx=0;entryDy=0;entryPerimeter=0;" edge="1" target="QOJqXSHRZHHX3jopu4hm-72" parent="1" source="QOJqXSHRZHHX3jopu4hm-61">
          <mxGeometry relative="1" as="geometry">
            <mxPoint x="270" y="1225" as="sourcePoint" />
            <mxPoint x="210" y="1270" as="targetPoint" />
          </mxGeometry>
        </mxCell>
        <mxCell id="QOJqXSHRZHHX3jopu4hm-71" value="" style="rounded=0;orthogonalLoop=1;jettySize=auto;html=1;endArrow=oval;endFill=0;sketch=0;sourcePerimeterSpacing=0;targetPerimeterSpacing=0;endSize=10;" edge="1" target="QOJqXSHRZHHX3jopu4hm-72" parent="1" source="QOJqXSHRZHHX3jopu4hm-24">
          <mxGeometry relative="1" as="geometry">
            <mxPoint x="220" y="1224.5000000000005" as="sourcePoint" />
          </mxGeometry>
        </mxCell>
        <mxCell id="QOJqXSHRZHHX3jopu4hm-72" value="" style="ellipse;whiteSpace=wrap;html=1;align=center;aspect=fixed;fillColor=none;strokeColor=none;resizable=0;perimeter=centerPerimeter;rotatable=0;allowArrows=0;points=[];outlineConnect=1;" vertex="1" parent="1">
          <mxGeometry x="190" y="1260" width="10" height="10" as="geometry" />
        </mxCell>
        <mxCell id="QOJqXSHRZHHX3jopu4hm-73" value="Textures" style="text;html=1;align=center;verticalAlign=middle;resizable=0;points=[];autosize=1;strokeColor=none;fillColor=none;" vertex="1" parent="1">
          <mxGeometry x="130" y="1230" width="70" height="30" as="geometry" />
        </mxCell>
        <mxCell id="QOJqXSHRZHHX3jopu4hm-76" value="All_Platforms" style="html=1;dropTarget=0;whiteSpace=wrap;" vertex="1" parent="1">
          <mxGeometry x="200" y="1340" width="180" height="90" as="geometry" />
        </mxCell>
        <mxCell id="QOJqXSHRZHHX3jopu4hm-77" value="" style="shape=module;jettyWidth=8;jettyHeight=4;" vertex="1" parent="QOJqXSHRZHHX3jopu4hm-76">
          <mxGeometry x="1" width="20" height="20" relative="1" as="geometry">
            <mxPoint x="-27" y="7" as="offset" />
          </mxGeometry>
        </mxCell>
        <mxCell id="QOJqXSHRZHHX3jopu4hm-80" value="" style="ellipse;whiteSpace=wrap;html=1;align=center;aspect=fixed;fillColor=none;strokeColor=none;resizable=0;perimeter=centerPerimeter;rotatable=0;allowArrows=0;points=[];outlineConnect=1;" vertex="1" parent="1">
          <mxGeometry x="285" y="1310" width="10" height="10" as="geometry" />
        </mxCell>
        <mxCell id="QOJqXSHRZHHX3jopu4hm-81" value="Platforms" style="text;html=1;align=center;verticalAlign=middle;resizable=0;points=[];autosize=1;strokeColor=none;fillColor=none;" vertex="1" parent="1">
          <mxGeometry x="305" y="1300" width="70" height="30" as="geometry" />
        </mxCell>
        <mxCell id="QOJqXSHRZHHX3jopu4hm-85" value="Doodle_mech" style="html=1;dropTarget=0;whiteSpace=wrap;" vertex="1" parent="1">
          <mxGeometry x="450" y="1320" width="180" height="90" as="geometry" />
        </mxCell>
        <mxCell id="QOJqXSHRZHHX3jopu4hm-86" value="" style="shape=module;jettyWidth=8;jettyHeight=4;" vertex="1" parent="QOJqXSHRZHHX3jopu4hm-85">
          <mxGeometry x="1" width="20" height="20" relative="1" as="geometry">
            <mxPoint x="-27" y="7" as="offset" />
          </mxGeometry>
        </mxCell>
        <mxCell id="QOJqXSHRZHHX3jopu4hm-87" value="" style="rounded=0;orthogonalLoop=1;jettySize=auto;html=1;endArrow=halfCircle;endFill=0;endSize=6;strokeWidth=1;sketch=0;" edge="1" target="QOJqXSHRZHHX3jopu4hm-89" parent="1" source="QOJqXSHRZHHX3jopu4hm-85">
          <mxGeometry relative="1" as="geometry">
            <mxPoint x="270" y="1115" as="sourcePoint" />
          </mxGeometry>
        </mxCell>
        <mxCell id="QOJqXSHRZHHX3jopu4hm-88" value="" style="rounded=0;orthogonalLoop=1;jettySize=auto;html=1;endArrow=oval;endFill=0;sketch=0;sourcePerimeterSpacing=0;targetPerimeterSpacing=0;endSize=10;exitX=0.677;exitY=1.052;exitDx=0;exitDy=0;exitPerimeter=0;" edge="1" target="QOJqXSHRZHHX3jopu4hm-89" parent="1" source="QOJqXSHRZHHX3jopu4hm-24">
          <mxGeometry relative="1" as="geometry">
            <mxPoint x="420.00000000000045" y="1255.106060606061" as="sourcePoint" />
          </mxGeometry>
        </mxCell>
        <mxCell id="QOJqXSHRZHHX3jopu4hm-89" value="" style="ellipse;whiteSpace=wrap;html=1;align=center;aspect=fixed;fillColor=none;strokeColor=none;resizable=0;perimeter=centerPerimeter;rotatable=0;allowArrows=0;points=[];outlineConnect=1;" vertex="1" parent="1">
          <mxGeometry x="480" y="1270" width="10" height="10" as="geometry" />
        </mxCell>
        <mxCell id="QOJqXSHRZHHX3jopu4hm-90" value="Control" style="text;html=1;align=center;verticalAlign=middle;resizable=0;points=[];autosize=1;strokeColor=none;fillColor=none;" vertex="1" parent="1">
          <mxGeometry x="480" y="1250" width="60" height="30" as="geometry" />
        </mxCell>
        <mxCell id="QOJqXSHRZHHX3jopu4hm-91" value="" style="rounded=0;orthogonalLoop=1;jettySize=auto;html=1;endArrow=halfCircle;endFill=0;endSize=6;strokeWidth=1;sketch=0;" edge="1" target="QOJqXSHRZHHX3jopu4hm-93" parent="1" source="QOJqXSHRZHHX3jopu4hm-76">
          <mxGeometry relative="1" as="geometry">
            <mxPoint x="330" y="1235" as="sourcePoint" />
          </mxGeometry>
        </mxCell>
        <mxCell id="QOJqXSHRZHHX3jopu4hm-92" value="" style="rounded=0;orthogonalLoop=1;jettySize=auto;html=1;endArrow=oval;endFill=0;sketch=0;sourcePerimeterSpacing=0;targetPerimeterSpacing=0;endSize=10;exitX=0.5;exitY=1;exitDx=0;exitDy=0;" edge="1" target="QOJqXSHRZHHX3jopu4hm-93" parent="1" source="QOJqXSHRZHHX3jopu4hm-24">
          <mxGeometry relative="1" as="geometry">
            <mxPoint x="307.0921985815603" y="1270" as="sourcePoint" />
          </mxGeometry>
        </mxCell>
        <mxCell id="QOJqXSHRZHHX3jopu4hm-93" value="" style="ellipse;whiteSpace=wrap;html=1;align=center;aspect=fixed;fillColor=none;strokeColor=none;resizable=0;perimeter=centerPerimeter;rotatable=0;allowArrows=0;points=[];outlineConnect=1;" vertex="1" parent="1">
          <mxGeometry x="295" y="1290" width="10" height="10" as="geometry" />
        </mxCell>
        <mxCell id="QOJqXSHRZHHX3jopu4hm-100" value="" style="rounded=0;orthogonalLoop=1;jettySize=auto;html=1;endArrow=halfCircle;endFill=0;endSize=6;strokeWidth=1;sketch=0;" edge="1" target="QOJqXSHRZHHX3jopu4hm-102" parent="1" source="QOJqXSHRZHHX3jopu4hm-104">
          <mxGeometry relative="1" as="geometry">
            <mxPoint x="424.99999999999955" y="1103.3333333333335" as="sourcePoint" />
          </mxGeometry>
        </mxCell>
        <mxCell id="QOJqXSHRZHHX3jopu4hm-101" value="" style="rounded=0;orthogonalLoop=1;jettySize=auto;html=1;endArrow=oval;endFill=0;sketch=0;sourcePerimeterSpacing=0;targetPerimeterSpacing=0;endSize=10;exitX=0.75;exitY=1;exitDx=0;exitDy=0;" edge="1" target="QOJqXSHRZHHX3jopu4hm-102" parent="1" source="QOJqXSHRZHHX3jopu4hm-24">
          <mxGeometry relative="1" as="geometry">
            <mxPoint x="310" y="1100" as="sourcePoint" />
          </mxGeometry>
        </mxCell>
        <mxCell id="QOJqXSHRZHHX3jopu4hm-102" value="" style="ellipse;whiteSpace=wrap;html=1;align=center;aspect=fixed;fillColor=none;strokeColor=none;resizable=0;perimeter=centerPerimeter;rotatable=0;allowArrows=0;points=[];outlineConnect=1;" vertex="1" parent="1">
          <mxGeometry x="390" y="1090" width="10" height="10" as="geometry" />
        </mxCell>
        <mxCell id="QOJqXSHRZHHX3jopu4hm-103" value="Level" style="text;html=1;align=center;verticalAlign=middle;resizable=0;points=[];autosize=1;strokeColor=none;fillColor=none;" vertex="1" parent="1">
          <mxGeometry x="390" y="1060" width="50" height="30" as="geometry" />
        </mxCell>
        <mxCell id="QOJqXSHRZHHX3jopu4hm-104" value="Levels" style="html=1;dropTarget=0;whiteSpace=wrap;" vertex="1" parent="1">
          <mxGeometry x="440" y="1090" width="130" height="61" as="geometry" />
        </mxCell>
        <mxCell id="QOJqXSHRZHHX3jopu4hm-105" value="" style="shape=module;jettyWidth=8;jettyHeight=4;" vertex="1" parent="QOJqXSHRZHHX3jopu4hm-104">
          <mxGeometry x="1" width="20" height="20" relative="1" as="geometry">
            <mxPoint x="-27" y="7" as="offset" />
          </mxGeometry>
        </mxCell>
        <mxCell id="QOJqXSHRZHHX3jopu4hm-106" value="" style="rounded=0;whiteSpace=wrap;html=1;" vertex="1" parent="1">
          <mxGeometry x="380" y="1020" width="20" height="20" as="geometry" />
        </mxCell>
        <mxCell id="QOJqXSHRZHHX3jopu4hm-107" value="" style="rounded=0;orthogonalLoop=1;jettySize=auto;html=1;endArrow=oval;endFill=0;sketch=0;sourcePerimeterSpacing=0;targetPerimeterSpacing=0;endSize=10;exitX=0.25;exitY=0;exitDx=0;exitDy=0;" edge="1" parent="1" source="QOJqXSHRZHHX3jopu4hm-106">
          <mxGeometry relative="1" as="geometry">
            <mxPoint x="355" y="990" as="sourcePoint" />
            <mxPoint x="720" y="1030" as="targetPoint" />
          </mxGeometry>
        </mxCell>
        <mxCell id="QOJqXSHRZHHX3jopu4hm-108" value="Game" style="text;html=1;align=center;verticalAlign=middle;resizable=0;points=[];autosize=1;strokeColor=none;fillColor=none;" vertex="1" parent="1">
          <mxGeometry x="690" y="990" width="60" height="30" as="geometry" />
        </mxCell>
      </root>
    </mxGraphModel>
  </diagram>
</mxfile>
